<svg height="512pt" viewBox="-2 0 512 512.00001" width="512pt" xmlns="http://www.w3.org/2000/svg"><path d="m251.621094 13.550781-192.410156 152.011719v331.203125h389.457031v-331.203125zm0 0" fill="#e2b37a"/><path d="m425.917969 146.0625-29.882813-.050781-74.496094-58.21875v-87.792969h104.644532zm0 0" fill="#5d382d"/><path d="m448.667969 165.5625-194.726563-150.222656v481.425781h194.726563zm0 0" fill="#cf8142"/><path d="m18.785156 230.261719-18.785156-23.238281 252.765625-204.339844 255.113281 201.402344-18.515625 23.453124-236.375-186.609374zm0 0" fill="#8c5c4f"/><path d="m507.878906 204.085938-253.9375-200.476563v38.070313l235.421875 185.859374zm0 0" fill="#6f463a"/><path d="m328.699219 273.390625c-17.167969.003906-32.15625-10.4375-38.257813-25.9375h-72.425781c-6.578125 16.707031-23.484375 27.527344-42.3125 25.746094-19.699219-1.875-35.285156-17.542969-37.066406-37.257813-.878907-9.75 1.667969-19.34375 7.199219-27.277344-5.53125-7.9375-8.078126-17.53125-7.199219-27.28125 1.777343-19.710937 17.367187-35.378906 37.066406-37.257812 18.824219-1.792969 35.734375 9.039062 42.3125 25.746094h72.429687c6.574219-16.707032 23.476563-27.523438 42.3125-25.746094 19.699219 1.875 35.289063 17.546875 37.066407 37.261719.878906 9.75-1.667969 19.339843-7.199219 27.277343 5.53125 7.9375 8.078125 17.527344 7.199219 27.277344-1.78125 19.714844-17.371094 35.382813-37.066407 37.257813-1.363281.128906-2.71875.191406-4.058593.191406zm0 0" fill="#f4f2f5"/><path d="m362.625 208.664062c5.527344-7.9375 8.074219-17.53125 7.195312-27.277343-1.777343-19.714844-17.363281-35.382813-37.0625-37.261719-18.835937-1.777344-35.738281 9.039062-42.316406 25.746094h-36.5v77.582031h36.5c6.105469 15.5 21.089844 25.941406 38.257813 25.941406 1.339843-.003906 2.695312-.066406 4.054687-.195312 19.699219-1.875 35.289063-17.542969 37.066406-37.253907.878907-9.753906-1.664062-19.34375-7.195312-27.28125zm0 0" fill="#dce1ea"/><path d="m339.648438 490.726562v-119.265624c0-47.101563-38.316407-85.421876-85.417969-85.421876-47.101563 0-85.421875 38.320313-85.421875 85.421876v119.265624zm0 0" fill="#cef369"/><path d="m339.648438 490.726562v-119.265624c0-47.101563-38.316407-85.421876-85.417969-85.421876l-.261719 204.6875zm0 0" fill="#95d441"/><path d="m30.117188 482.117188h456.191406v29.882812h-456.191406zm0 0" fill="#8c5c4f"/><path d="m253.941406 482.117188h232.371094v29.882812h-232.371094zm0 0" fill="#6f463a"/></svg>