<svg id="Layer_1" height="512" viewBox="0 0 512 512" width="512" xmlns="http://www.w3.org/2000/svg"><g><path d="m424 304h-80c-4.418 0-8 3.582-8 8v176c0 3.236 1.949 6.153 4.938 7.391 2.992 1.238 6.431.553 8.719-1.734l34.343-34.343 34.343 34.343c1.531 1.531 3.577 2.343 5.659 2.343 1.03 0 2.07-.199 3.06-.609 2.989-1.238 4.938-4.156 4.938-7.391v-176c0-4.418-3.582-8-8-8z" fill="#4182c3"/><g><path d="m344 496c-4.418 0-8-3.582-8-8v-176c0-4.418 3.582-8 8-8s8 3.582 8 8v176c0 4.418-3.582 8-8 8z" fill="#64afe1"/></g><g><g><g><path d="m144 336v-64h96v224h-192v-64c0-53.019 42.981-96 96-96z" fill="#fab991"/></g><g><path d="m160 208h64c8.837 0 16 7.164 16 16v16h24c4.418 0 8 3.582 8 8v24c0 17.673-14.327 32-32 32h-96v-32h-32v-16c0-26.51 21.49-48 48-48z" fill="#fab991"/></g><g><path d="m264 240h-16c-4.418 0-8 3.582-8 8 0 8.837 7.163 16 16 16 8.837 0 16-7.163 16-16 0-4.418-3.582-8-8-8z" fill="#463c4b"/></g><g><path d="m144 304c-17.673 0-32-14.327-32-32v-16c0-26.51 21.49-48 48-48h32c-8.837 0-16 7.163-16 16v48c0 17.673-14.327 32-32 32z" fill="#463c4b"/></g><path d="m32 464c0-4.418-3.582-8-8-8s-8 3.582-8 8c0 17.673 14.327 32 32 32v-32z" fill="#f0915a"/></g><path d="m144 464c0-35.346-28.654-64-64-64-17.673 0-32 14.327-32 32v64h128c0-17.673-14.327-32-32-32z" fill="#f0915a"/><g><path d="m144 320h96v16h-96z" fill="#faa019"/></g><g><path d="m192 320h48v16h-48z" fill="#f06423"/></g><path d="m240 464v-96h-48v96c17.673 0 32 14.327 32 32h48c0-17.673-14.327-32-32-32z" fill="#f0915a"/></g><g><path d="m384.971 79.03c-9.373-9.373-24.568-9.373-33.941 0l-40.971 40.97h-38.059c0-8.836-7.164-16-16-16s-16 7.164-16 16h-16c-13.255 0-24 10.745-24 24s10.745 24 24 24h96c6.365 0 12.47-2.529 16.971-7.03l48-48c9.372-9.372 9.372-24.568 0-33.94z" fill="#fab991"/><g><path d="m385.941 30.059-44.284 44.284c-3.124 3.124-3.124 8.19 0 11.314l36.686 36.686c3.124 3.124 8.19 3.124 11.314 0l42.343-42.343v-64h-12.118c-12.73 0-24.939 5.057-33.941 14.059z" fill="#e1322d"/></g></g><g><path d="m484.837 317.019-14.752 14.342c-1.845 1.793-2.557 4.454-1.855 6.929l5.611 19.786c1.077 3.798-1.198 7.735-5.027 8.698l-19.943 5.016c-2.5.629-4.452 2.581-5.081 5.081l-5.016 19.943c-.963 3.829-4.9 6.104-8.698 5.027l-19.786-5.611c-2.475-.702-5.136.01-6.929 1.855l-14.341 14.752c-2.749 2.827-7.289 2.827-10.038 0l-14.342-14.752c-1.793-1.845-4.454-2.557-6.929-1.855l-19.786 5.611c-3.798 1.077-7.735-1.198-8.698-5.027l-5.016-19.943c-.629-2.5-2.581-4.452-5.081-5.081l-19.943-5.016c-3.829-.963-6.104-4.9-5.027-8.698l5.611-19.786c.702-2.475-.01-5.136-1.855-6.929l-14.752-14.341c-2.827-2.749-2.827-7.289 0-10.038l14.752-14.342c1.845-1.793 2.557-4.454 1.855-6.929l-5.611-19.786c-1.077-3.798 1.198-7.735 5.027-8.698l19.943-5.016c2.5-.629 4.452-2.581 5.081-5.081l5.016-19.943c.963-3.829 4.9-6.104 8.698-5.027l19.786 5.611c2.475.702 5.136-.01 6.929-1.855l14.341-14.752c2.749-2.827 7.289-2.827 10.038 0l14.342 14.752c1.793 1.845 4.454 2.557 6.929 1.855l19.786-5.611c3.798-1.077 7.735 1.198 8.698 5.027l5.016 19.943c.629 2.5 2.581 4.452 5.081 5.081l19.943 5.016c3.829.963 6.104 4.9 5.027 8.698l-5.611 19.786c-.702 2.475.01 5.136 1.855 6.929l14.752 14.341c2.828 2.749 2.828 7.289 0 10.038z" fill="#f06423"/></g><g><circle cx="384" cy="312" fill="#faa019" r="72"/></g><g><path d="m320 320c-4.418 0-8-3.582-8-8 0-39.701 32.299-72 72-72 4.418 0 8 3.582 8 8s-3.582 8-8 8c-30.879 0-56 25.122-56 56 0 4.418-3.582 8-8 8z" fill="#ffd205"/></g><g><g><path d="m406.969 313.031c-2.987-9.855-12.138-17.031-22.969-17.031s-19.982 7.176-22.969 17.031c-9.855 2.987-17.031 12.138-17.031 22.969 0 13.255 10.745 24 24 24 6.148 0 11.754-2.314 16-6.116 4.246 3.802 9.852 6.116 16 6.116 13.255 0 24-10.745 24-24 0-10.831-7.176-19.982-17.031-22.969z" fill="#f06423"/></g><g><ellipse cx="401.333" cy="280" fill="#f06423" rx="12" ry="16"/></g><g><ellipse cx="366.667" cy="280" fill="#f06423" rx="12" ry="16"/></g><g><circle cx="424" cy="304" fill="#f06423" r="8"/></g><g><circle cx="344" cy="304" fill="#f06423" r="8"/></g></g></g></svg>