<svg id="Layer_1" enable-background="new 0 0 512 512" height="512" viewBox="0 0 512 512" width="512" xmlns="http://www.w3.org/2000/svg"><g><path d="m501.7 512h-288.346c-5.689 0-10.3-4.611-10.3-10.3v-44.904c0-51.366 41.64-93.006 93.006-93.006h122.934c51.366 0 93.006 41.64 93.006 93.006v44.904c0 5.689-4.611 10.3-10.3 10.3z" fill="#fe646f"/><path d="m419.01 363.79h-30.895c51.357 0 92.99 41.647 92.99 93.022v44.886c0 5.69-4.611 10.302-10.298 10.302h30.895c5.688 0 10.298-4.612 10.298-10.302v-44.886c0-51.374-41.633-93.022-92.99-93.022z" fill="#fd4755"/><path d="m326.632 299.665h61.789v61.096h-61.789z" fill="#ffcebf"/><path d="m357.527 299.665h30.895v61.096h-30.895z" fill="#ffb09e"/><g fill="#ffb09e"><path d="m271.942 196.866c0 22.539-13.779 40.811-30.776 40.811s-26.871-20.983-26.871-43.523 9.874-38.099 26.871-38.099 30.776 18.272 30.776 40.811z"/><path d="m443.111 196.866c0 22.539 13.779 40.811 30.776 40.811s26.871-20.983 26.871-43.523-9.874-38.099-26.871-38.099-30.776 18.272-30.776 40.811z"/></g><path d="m258.196 220.155v-67.683c0-54.859 44.472-99.331 99.331-99.331 54.859 0 99.331 44.472 99.331 99.331v67.309c0 54.962-44.556 99.518-99.518 99.518-54.756 0-99.144-44.388-99.144-99.144z" fill="#ffcebf"/><path d="m357.527 53.141c-5.255 0-10.413.412-15.448 1.198 47.522 7.423 83.884 48.546 83.884 98.168v67.24c0 49.72-36.437 90.923-84.055 98.355 5.029.786 10.182 1.198 15.432 1.198 54.962 0 99.518-44.571 99.518-99.553v-67.24c0-54.878-44.472-99.366-99.331-99.366z" fill="#ffb09e"/><g><path d="m349.452 245.626c3.057.798 5.565 1.197 8.075 1.197s5.018-.399 8.074-1.197c4.008-1.047 6.408-5.145 5.361-9.152-1.046-4.007-5.142-6.409-9.152-5.361-3.603.942-4.964.941-8.567 0-4.012-1.05-8.105 1.354-9.152 5.361s1.353 8.105 5.361 9.152z" fill="#ffb09e"/><path d="m339.765 158.975c1.047-4.008-1.354-8.105-5.361-9.152-11.638-3.039-18.734-3.039-30.374 0-4.007 1.047-6.408 5.145-5.361 9.152 1.046 4.007 5.142 6.409 9.152 5.361 9.16-2.394 13.633-2.392 22.792 0 .636.166 1.273.245 1.9.245 3.33 0 6.371-2.234 7.252-5.606z" fill="#aa6a51"/><path d="m411.023 149.822c-11.638-3.039-18.734-3.039-30.373 0-4.007 1.047-6.408 5.145-5.361 9.152.88 3.372 3.921 5.606 7.251 5.606.627 0 1.265-.079 1.9-.245 9.159-2.393 13.632-2.393 22.792 0 4.007 1.045 8.104-1.354 9.152-5.361 1.047-4.007-1.353-8.105-5.361-9.152z" fill="#aa6a51"/><path d="m373.29 257.509c-9.723 5.414-21.804 5.414-31.526 0-3.62-2.016-8.187-.715-10.201 2.904-2.015 3.619-.715 8.187 2.904 10.201 7.112 3.96 15.086 5.939 23.06 5.939s15.948-1.979 23.06-5.939c3.619-2.015 4.919-6.582 2.904-10.201-2.014-3.618-6.582-4.92-10.201-2.904z" fill="#ffb09e"/><g fill="#aa6a51"><path d="m314.274 185.562c-4.142 0-7.5 3.357-7.5 7.5v6.182c0 4.143 3.358 7.5 7.5 7.5s7.5-3.357 7.5-7.5v-6.182c0-4.142-3.357-7.5-7.5-7.5z"/><path d="m400.779 185.562c-4.142 0-7.5 3.357-7.5 7.5v6.182c0 4.143 3.358 7.5 7.5 7.5s7.5-3.357 7.5-7.5v-6.182c0-4.142-3.358-7.5-7.5-7.5z"/></g></g><path d="m467.257 52.435c-1.28-.739-2.57-1.424-3.867-2.065-.664-.328-1.087-.979-1.149-1.717-1.469-17.48-21.281-32.186-46.319-33.603-4.6-.26-9.076-.054-13.339.562-.628.091-1.248-.113-1.708-.55-13.367-12.711-39.059-18.403-66.614-13.061-36.562 7.088-62.825 30.968-59.622 53.811.105.746-.183 1.489-.778 1.95-48.927 37.88-24.899 110.965-22.474 116.179 3.086 6.647 6.81 24.734 6.81 24.734s21.162-17.011 20.48-23.503c-1.091-10.373-7.095-74.095 19.103-68.087 26.19 6.007 36.974 10.373 58.871 10.373s32.682-4.366 58.871-10.373c26.199-6.007 20.194 57.714 19.103 68.087-.683 6.492 22.233 23.562 22.233 23.562s1.971-18.145 5.057-24.792c1.927-4.144 9.8-26.61 9.261-52.287-.02-.971.624-1.843 1.572-2.055 8.373-1.875 15.272-6.303 19.227-13.155 9.498-16.459-1.568-40.64-24.718-54.01z" fill="#bc7c63"/><g><path d="m467.257 52.435c-1.28-.739-2.57-1.424-3.867-2.064-.664-.328-1.087-.979-1.149-1.718-1.469-17.48-21.281-32.185-46.319-33.603-4.601-.261-9.077-.054-13.342.562-.626.09-1.245-.112-1.703-.548-12.61-11.993-36.192-17.734-61.959-13.86 9.883 1.624 18.612 4.847 25.423 9.383 4.529 3.017 9.909 4.484 15.349 4.368 1.756-.038 3.537-.007 5.337.095 25.038 1.418 44.85 16.123 46.319 33.603.062.738.485 1.39 1.149 1.718 1.297.64 2.587 1.325 3.867 2.064 23.15 13.37 34.216 37.551 24.717 54.009-3.955 6.852-10.853 11.279-19.226 13.155-.948.212-1.593 1.084-1.573 2.056.302 14.383-2.036 27.755-4.489 37.467-.305 7.426-.892 13.435-1.167 16.05-.683 6.492 22.233 23.562 22.233 23.562s1.971-18.145 5.057-24.792c1.927-4.144 9.8-26.609 9.261-52.286-.02-.971.625-1.843 1.573-2.056 8.373-1.875 15.272-6.303 19.226-13.155 9.499-16.459-1.567-40.64-24.717-54.01z" fill="#aa6a51"/></g><path d="m409.807 345.465c-1.791-1.763-4.458-2.265-6.775-1.292-6.03 2.532-20.035 6.842-45.505 6.842s-39.475-4.31-45.505-6.841c-2.317-.973-4.983-.471-6.774 1.292l-17.988 17.704c-.479.472-.422 1.256.118 1.657 4.65 3.454 25.817 17.093 70.149 17.093 44.331 0 65.499-13.639 70.149-17.093.54-.401.597-1.185.118-1.657z" fill="#f3f0f3"/><path d="m249.784 512c1.554 0 2.87-1.169 3.03-2.715 5.446-52.884-8.547-113.457-101.251-113.457s-106.697 60.574-101.252 113.457c.159 1.546 1.475 2.715 3.03 2.715z" fill="#d6694b"/><path d="m224.656 512h25.128c1.554 0 2.87-1.169 3.03-2.715 5.446-52.884-8.547-113.457-101.251-113.457-4.859 0-9.494.172-13.929.495 81.631 5.945 92.9 64.934 87.022 115.677z" fill="#c4573a"/><g><path d="m90.811 327.807s-14.63-24.689-44.718-24.689c-26.727 0-48.739 85.495-45.835 143.822.584 11.727 12.041 19.786 23.295 16.478 19.056-5.601 45.289-18.829 52.723-49.748 12.069-50.201 14.535-85.863 14.535-85.863z" fill="#97756e"/><path d="m212.314 327.807s14.63-24.689 44.718-24.689c26.727 0 48.739 85.495 45.835 143.822-.584 11.727-12.041 19.786-23.295 16.478-19.056-5.601-45.289-18.829-52.723-49.748-12.069-50.201-14.535-85.863-14.535-85.863z" fill="#97756e"/><path d="m257.032 303.118c-6.714 0-12.653 1.234-17.837 3.144 22.518 15.907 39.53 88.965 36.955 140.678-.266 5.344-2.794 9.921-6.528 13.013 3.434 1.393 6.792 2.537 9.95 3.465 11.254 3.308 22.711-4.751 23.295-16.478 2.905-58.326-19.108-143.822-45.835-143.822z" fill="#82635e"/></g><path d="m46.093 303.118c-3.031 0-6 1.11-8.88 3.144 18.047 6.65 26.882 21.545 26.882 21.545s-2.466 35.662-14.536 85.863c-6.202 25.794-25.486 39.271-42.773 46.283 4.46 3.693 10.641 5.265 16.767 3.465 19.056-5.601 45.289-18.829 52.723-49.748 12.07-50.201 14.536-85.863 14.536-85.863s-14.63-24.689-44.719-24.689z" fill="#82635e"/><path d="m246.605 379.748c0 56.338-53.708 104.842-95.043 104.842s-95.042-48.504-95.042-104.842 42.552-81.262 95.043-81.262 95.042 24.924 95.042 81.262z" fill="#d6694b"/><path d="m151.563 298.485c-5.263 0-10.423.255-15.453.763 45.14 4.555 79.59 29.81 79.59 80.5 0 49.512-41.481 92.967-79.59 102.772 5.254 1.352 10.444 2.07 15.453 2.07 41.335 0 95.043-48.504 95.043-104.842-.001-56.338-42.553-81.263-95.043-81.263z" fill="#c4573a"/><path d="m219.264 457.055c0 24.366-30.311 36.116-67.702 36.116s-67.702-11.749-67.702-36.116c0-24.366 30.311-52.122 67.702-52.122s67.702 27.756 67.702 52.122z" fill="#f4d7c8"/><path d="m151.563 404.933c-5.319 0-10.487.579-15.453 1.612 29.941 6.233 52.249 29.61 52.249 50.51s-22.308 32.509-52.249 35.391c4.966.478 10.134.724 15.453.724 37.391 0 67.701-11.749 67.701-36.116 0-24.365-30.311-52.121-67.701-52.121z" fill="#ecbba3"/><path d="m193.871 452.439c-2.322-3.432-6.985-4.329-10.415-2.009-6.128 4.148-14.224 4.427-20.623.714l-3.77-2.188v-29.111c0-4.143-3.358-7.5-7.5-7.5s-7.5 3.357-7.5 7.5v29.113l-3.772 2.189c-6.399 3.711-14.494 3.432-20.621-.715-3.431-2.32-8.094-1.422-10.415 2.009s-1.421 8.094 2.009 10.415c5.775 3.907 12.533 5.877 19.304 5.877 5.964 0 11.938-1.53 17.251-4.611l3.747-2.175 3.738 2.171c11.344 6.583 25.694 6.087 36.559-1.264 3.429-2.321 4.328-6.984 2.008-10.415z" fill="#554e56"/><path d="m180.39 400.431c0 12.346-16.29 24.262-28.828 24.262s-28.828-11.916-28.828-24.262 12.907-20.446 28.828-20.446 28.828 8.1 28.828 20.446z" fill="#7a6d79"/><path d="m151.563 379.985c-4.828 0-9.375.749-13.373 2.131 9.185 3.176 15.455 9.712 15.455 18.314 0 8.125-7.056 16.063-15.455 20.542 4.363 2.327 9.087 3.721 13.373 3.721 12.537 0 28.828-11.916 28.828-24.262-.001-12.346-12.907-20.446-28.828-20.446z" fill="#685e68"/><g fill="#554e56"><path d="m136.258 353.169c-9.735-6.781-22.819-6.781-32.554 0-3.399 2.367-4.236 7.041-1.868 10.44 2.367 3.397 7.042 4.237 10.44 1.868 4.608-3.209 10.801-3.209 15.41 0 1.306.91 2.8 1.347 4.279 1.347 2.371-.001 4.704-1.122 6.161-3.215 2.368-3.399 1.531-8.073-1.868-10.44z"/><path d="m199.421 353.169c-9.736-6.781-22.819-6.781-32.554 0-3.399 2.367-4.236 7.041-1.868 10.44 2.367 3.397 7.042 4.237 10.44 1.868 4.609-3.209 10.802-3.209 15.41 0 1.306.91 2.8 1.347 4.279 1.347 2.371-.001 4.704-1.122 6.161-3.215 2.368-3.399 1.531-8.073-1.868-10.44z"/></g></g></svg>