<svg id="Layer_1" height="512" viewBox="0 0 512 512" width="512" xmlns="http://www.w3.org/2000/svg"><g><g><path d="m64 152.452c0-8.231-6.028-15.467-14.212-16.355-9.637-1.045-17.788 6.477-17.788 15.903v16c0 35.346 28.654 64 64 64h80v-64h-96.452c-8.587 0-15.548-6.961-15.548-15.548z" fill="#f0915a"/></g><path d="m464 320h-80v-24h-48v48c0 13.255 10.745 24 24 24h104v8c0 8.836 7.164 16 16 16s16-7.164 16-16v-24c0-17.673-14.327-32-32-32z" fill="#f0915a"/><g><path d="m160 328v-32h96v16c0 35.346-28.654 64-64 64h-16v40c8.837 0 16 7.163 16 16 0 8.837-7.163 16-16 16h-32c-8.837 0-16-7.163-16-16v-72c0-17.673 14.327-32 32-32z" fill="#f0915a"/></g><g><path d="m488 96h-32v-16c0-13.255-10.745-24-24-24h-48c-8.836 0-16 7.164-16 16v24h-56v48c0 13.255-10.745 24-24 24h-144c-44.183 0-80 35.817-80 80v80h-16c-17.673 0-32 14.327-32 32v72c0 8.836 7.164 16 16 16h32c8.836 0 16-7.164 16-16 0-8.837-7.164-16-16-16v-40h32c35.346 0 64-28.654 64-64h80l10.912 10.912c10.197 10.197 23.139 17.013 37.088 19.742v25.346c0 13.255 10.745 24 24 24h104v8c0 8.836 7.164 16 16 16s16-7.164 16-16v-24c0-17.673-14.327-32-32-32h-80v-4.543c55.314-15.012 96-65.567 96-125.633v-45.824h16c26.51 0 48-21.49 48-48v-16c0-4.418-3.582-8-8-8z" fill="#fab991"/><path d="m488 96h-8c-4.418 0-8 3.582-8 8v16c0 13.255-10.745 24-24 24h-48c-13.255 0-24 10.745-24 24v24h56v-24h16c26.51 0 48-21.49 48-48v-16c0-4.418-3.582-8-8-8z" fill="#f0915a"/><g><path d="m424 96h32v-16c0-13.255-10.745-24-24-24h-24v24c0 8.837 7.163 16 16 16z" fill="#f0915a"/></g><g><path d="m328 160c-22.092 0-40-17.909-40-40 0-35.346 28.654-64 64-64h32c-8.837 0-16 7.163-16 16v48c0 22.091-17.909 40-40 40z" fill="#463c4b"/></g><g><circle cx="392" cy="80" fill="#463c4b" r="8"/></g><g><circle cx="432" cy="80" fill="#463c4b" r="8"/></g><g><path d="m484 120c6.627 0 12-5.373 12-12v-4c0-4.418-3.582-8-8-8h-8c-4.418 0-8 3.582-8 8v4c0 6.627 5.373 12 12 12z" fill="#463c4b"/></g></g><g><path d="m188 128h80c2.209 0 4-1.791 4-4 0-2.209-1.791-4-4-4h-80c-2.209 0-4 1.791-4 4 0 2.209 1.791 4 4 4z" fill="#f04b37"/></g><g><path d="m212 144h32c2.209 0 4-1.791 4-4 0-2.209-1.791-4-4-4h-32c-2.209 0-4 1.791-4 4 0 2.209 1.791 4 4 4z" fill="#f04b37"/></g><g><path d="m284 416h32c2.209 0 4-1.791 4-4 0-2.209-1.791-4-4-4h-32c-2.209 0-4 1.791-4 4 0 2.209 1.791 4 4 4z" fill="#f04b37"/></g><g><path d="m44 288h32c2.209 0 4-1.791 4-4 0-2.209-1.791-4-4-4h-32c-2.209 0-4 1.791-4 4 0 2.209 1.791 4 4 4z" fill="#f04b37"/></g><g><path d="m20 264h32c2.209 0 4-1.791 4-4 0-2.209-1.791-4-4-4h-32c-2.209 0-4 1.791-4 4 0 2.209 1.791 4 4 4z" fill="#f04b37"/></g></g></svg>